<svg viewBox="0 0 93 165" preserveAspectRatio="xMidYMid meet" data-browser="Firefox[41.0]" version="1.1" xmlns="http://www.w3.org/2000/svg" xmlns:xlink="http://www.w3.org/1999/xlink"><g id="logo__item--business" class="logo__item">
                <g transform="translate(2 163.2539589931655) scale(1 1) rotate(0 0 0)" class="logo__item__inner">
                    <text dy="" dominant-baseline="auto" alignment-baseline="auto" font-family="'Montserrat-Bold'" font-size="32px" fill="#55887D" letter-spacing="0" font-weight="normal" font-style="normal">CoRR</text>
                </g>
            </g><g class="logo__item" id="logo__item--logo_0">
    <g transform="translate(-19.729371561926996 -0.5) scale(0.8534755792632105 0.8534755792632105) rotate(0 0 0)" class="logo__item__inner">
        
<g>
	<path fill="#55887D" d="M85.1,8.6c0-2.3-1.9-4.2-4.2-4.2c-2.3,0-4.2,1.9-4.2,4.2c0,2.3,1.9,4.2,4.2,4.2   C83.2,12.7,85.1,10.9,85.1,8.6"></path>
	<g>
		<path fill="#ABC39F" d="M80.5,87.4c0,1.4,1.2,2.6,2.6,2.6c1.4,0,2.6-1.2,2.6-2.6c0-1.4-1.2-2.6-2.6-2.6    C81.7,84.8,80.5,86,80.5,87.4"></path>
		<path fill="#2D3E50" d="M92,74.6V55.1c3.5-0.4,6.2-3.3,6.2-6.9c0-3.8-3.1-6.9-6.9-6.9H64.1c-3.8,0-6.9,3.1-6.9,6.9    c0,3.5,2.5,6.3,5.9,6.8v19.6c-1.7,3.8-17.1,38.3-23,51.8c-1.3,3.1-1.9,5.7-1.9,8c0.1,9.2,9.1,10.6,9.2,10.6l0.1,0h60.2l0.1,0    c0.1,0,9-1.4,9.2-10.6c0-2.3-0.6-4.9-1.9-8C109.1,112.9,93.7,78.4,92,74.6 M107.3,141.5H47.8c-0.7-0.2-6.2-1.3-6.1-7.1    c0-1.7,0.4-3.9,1.7-6.6c6.2-14.3,23.1-52.1,23.1-52.1l0.2-0.3V51.6h-2.5c-1.9,0-3.4-1.5-3.4-3.4c0-1.9,1.5-3.4,3.4-3.4h27.2    c1.9,0,3.4,1.5,3.4,3.4c0,1.9-1.5,3.4-3.4,3.4h-2.8v23.8l0.2,0.3c0,0.1,16.9,37.8,23.1,52.1c1.2,2.8,1.6,5,1.6,6.6    C113.6,140.2,108.1,141.4,107.3,141.5"></path>
		<path fill="#55887D" d="M75.4,82.3c2.3,0,4.2-1.9,4.2-4.2c0-2.3-1.9-4.2-4.2-4.2c-2.3,0-4.2,1.9-4.2,4.2    C71.2,80.4,73.1,82.3,75.4,82.3"></path>
		<path fill="#F6A71E" d="M72.9,32c0,4,3.3,7.3,7.3,7.3c4,0,7.3-3.3,7.3-7.3c0-4-3.3-7.3-7.3-7.3C76.2,24.8,72.9,28,72.9,32"></path>
		<path fill="#7C594F" d="M66.6,17.8c-2.3,0-4.2,1.9-4.2,4.2c0,2.3,1.9,4.2,4.2,4.2c2.3,0,4.2-1.9,4.2-4.2    C70.8,19.6,68.9,17.8,66.6,17.8"></path>
		<path fill="#EC2127" d="M80.2,61.6c1.4,0,2.6-1.2,2.6-2.6c0-1.4-1.2-2.6-2.6-2.6s-2.6,1.2-2.6,2.6C77.6,60.4,78.8,61.6,80.2,61.6"></path>
		<rect x="54.6" y="131.2" fill="#ABC39F" width="8.8" height="6"></rect>
		<rect x="54.6" y="121.7" fill="#ABC39F" width="8.8" height="6"></rect>
		<rect x="54.6" y="112.2" fill="#ABC39F" width="8.8" height="6"></rect>
		<rect x="83.3" y="131.4" fill="#F6A71E" width="8.8" height="6"></rect>
		<rect x="83.3" y="122" fill="#F6A71E" width="8.8" height="6"></rect>
		<rect x="83.3" y="112.5" fill="#F6A71E" width="8.8" height="6"></rect>
		<rect x="83" y="102.6" fill="#F6A71E" width="8.8" height="6"></rect>
		<rect x="95.4" y="131.1" fill="#7C594F" width="8.8" height="6"></rect>
		<rect x="95.4" y="121.7" fill="#7C594F" width="8.8" height="6"></rect>
		<rect x="95.4" y="112.2" fill="#7C594F" width="8.8" height="6"></rect>
		<rect x="69.7" y="131.2" fill="#55887D" width="8.8" height="6"></rect>
		<rect x="69.7" y="121.7" fill="#55887D" width="8.8" height="6"></rect>
		<rect x="69.7" y="112.2" fill="#55887D" width="8.8" height="6"></rect>
		<rect x="69.7" y="102.7" fill="#55887D" width="8.8" height="6"></rect>
		<rect x="69.7" y="93.2" fill="#55887D" width="8.8" height="6"></rect>
	</g>
</g>

    </g>
</g></svg>